<svg width="15" height="14" viewBox="0 0 15 14" fill="none" xmlns="http://www.w3.org/2000/svg">
<path d="M0.893555 7.13013V12.4906C0.893555 12.9838 1.2947 13.384 1.78697 13.384H6.25405V7.13013H0.893555Z" fill="#BED8E8"/>
<path d="M13.4012 3.55646H10.5745C10.7773 3.41798 10.9515 3.2804 11.073 3.15711C11.794 2.43255 11.794 1.25324 11.073 0.528679C10.3726 -0.177119 9.15215 -0.175333 8.4526 0.528679C8.06486 0.917314 7.03743 2.49955 7.17949 3.55646H7.11516C7.25632 2.49955 6.22889 0.917314 5.84204 0.528679C5.14161 -0.175333 3.9212 -0.175333 3.22166 0.528679C2.50156 1.25324 2.50156 2.43255 3.22076 3.15711C3.34316 3.2804 3.51738 3.41798 3.72018 3.55646H0.893415C0.401144 3.55646 0 3.95761 0 4.44988V5.79C0 6.03658 0.200125 6.23671 0.446708 6.23671H6.25391V4.44988H8.04074V6.23671H13.8479C14.0945 6.23671 14.2946 6.03658 14.2946 5.79V4.44988C14.2946 3.95761 13.8944 3.55646 13.4012 3.55646ZM6.2012 3.52698C6.2012 3.52698 6.16367 3.55646 6.03591 3.55646C5.41856 3.55646 4.24015 2.91499 3.85509 2.52725C3.48075 2.15023 3.48075 1.53556 3.85509 1.15854C4.03645 0.97628 4.27678 0.876217 4.5323 0.876217C4.78692 0.876217 5.02725 0.97628 5.20861 1.15854C5.81077 1.76427 6.40936 3.31167 6.2012 3.52698ZM8.25784 3.55646C8.13097 3.55646 8.09345 3.52787 8.09345 3.52698C7.88528 3.31167 8.48387 1.76427 9.08603 1.15854C9.44608 0.794917 10.0759 0.79313 10.4396 1.15854C10.8148 1.53556 10.8148 2.15023 10.4396 2.52725C10.0545 2.91499 8.87608 3.55646 8.25784 3.55646Z" fill="#BED8E8"/>
<path d="M8.04102 7.13013V13.384H12.5081C13.0013 13.384 13.4015 12.9838 13.4015 12.4906V7.13013H8.04102Z" fill="#BED8E8"/>
</svg>
