<svg width="14" height="14" viewBox="0 0 14 14" fill="none" xmlns="http://www.w3.org/2000/svg">
<path d="M7.00019 14C10.8599 14 14 10.8598 14 7C14 3.14019 10.8599 0 7.00019 0C3.14044 0 0.000405625 3.14019 0.000405625 7C0.000405625 8.69925 0.601922 10.3064 1.70429 11.5779L0.148823 13.1129C-0.166435 13.424 0.0519509 13.9646 0.496836 13.9667C0.500262 13.9668 6.99679 14 7.00019 14ZM4.02403 4.52257H10.0096C10.2851 4.52257 10.5084 4.7459 10.5084 5.02138C10.5084 5.29686 10.2851 5.52019 10.0096 5.52019H4.02403C3.74854 5.52019 3.52524 5.29686 3.52524 5.02138C3.52524 4.7459 3.74858 4.52257 4.02403 4.52257ZM4.02403 6.51782H10.0096C10.2851 6.51782 10.5084 6.74115 10.5084 7.01663C10.5084 7.2921 10.2851 7.51544 10.0096 7.51544H4.02403C3.74854 7.51544 3.52524 7.2921 3.52524 7.01663C3.52524 6.74115 3.74858 6.51782 4.02403 6.51782ZM3.52524 9.01188C3.52524 8.7364 3.74854 8.51306 4.02403 8.51306H10.0096C10.2851 8.51306 10.5084 8.7364 10.5084 9.01188C10.5084 9.28735 10.2851 9.51069 10.0096 9.51069H4.02403C3.74858 9.51069 3.52524 9.28735 3.52524 9.01188Z" fill="#BED8E8"/>
</svg>
