<svg width="14" height="9" viewBox="0 0 14 9" fill="none" xmlns="http://www.w3.org/2000/svg">
<path d="M13.9997 5.47512C13.9997 6.0474 13.5517 6.51121 12.9989 6.51121C12.4464 6.51121 11.9981 6.0474 11.9981 5.47512V3.53756L7.01486 8.69673C6.82694 8.89099 6.57257 9 6.30698 9C6.04166 9 5.78703 8.89099 5.59937 8.69673L3.27508 6.29023L1.70869 7.91183C1.31775 8.31655 0.684154 8.31655 0.293209 7.91183C-0.0977362 7.5071 -0.0977362 6.85118 0.293209 6.44646L2.56747 4.09231C2.95841 3.68785 3.592 3.68785 3.98295 4.09258L6.30698 6.4988L10.5829 2.07219H8.71104C8.15824 2.07219 7.71022 1.60838 7.71022 1.03609C7.71022 0.463814 8.15824 0 8.71104 0H12.9992C13.5517 0 14 0.464084 14 1.03609L13.9997 5.47512Z" fill="#D9D9D9"/>
</svg>
