<svg width="14" height="14" viewBox="0 0 14 14" fill="none" xmlns="http://www.w3.org/2000/svg">
<g clip-path="url(#clip0_79_593)">
<path d="M3.08344 0C2.82471 0 2.61426 0.210477 2.61426 0.469177V1.54161V2.68107C2.61426 2.9398 2.82471 3.15025 3.08344 3.15025H3.4856C3.74433 3.15025 3.95478 2.93977 3.95478 2.68107V1.54161V0.469177C3.95478 0.210477 3.74433 0 3.48557 0H3.08344Z" fill="#BED8E8"/>
<path d="M10.4565 0C10.1978 0 9.9873 0.210477 9.9873 0.469177V1.54161V2.68107C9.9873 2.9398 10.1978 3.15025 10.4565 3.15025H10.8587C11.1174 3.15025 11.3278 2.93977 11.3278 2.68107V1.54161V0.469177C11.3278 0.210477 11.1174 0 10.8586 0H10.4565Z" fill="#BED8E8"/>
<path fill-rule="evenodd" clip-rule="evenodd" d="M1.07243 13.875H12.8271C13.4426 13.875 13.9416 13.376 13.9416 12.7605V2.61448C13.9416 2.02222 13.4614 1.54205 12.8692 1.54205H11.9978V2.68152C11.9978 3.30984 11.4867 3.82099 10.8583 3.82099H10.4562C9.82786 3.82099 9.31671 3.30984 9.31671 2.68152V1.54205H4.62485V2.68152C4.62485 3.30984 4.1137 3.82099 3.48538 3.82099H3.08321C2.4549 3.82099 1.94375 3.30984 1.94375 2.68152V1.54205H1.07243C0.480168 1.54205 0 2.02225 0 2.61448V12.8026C0 13.3948 0.480168 13.875 1.07243 13.875ZM12.7391 12.5345H2.01081C1.56656 12.5345 1.20648 12.1744 1.20648 11.7301V5.29556H12.7351L12.7391 12.5345Z" fill="#BED8E8"/>
<path d="M3.77897 8.37008C4.36668 8.37008 4.8431 7.89365 4.8431 7.30595C4.8431 6.71825 4.36668 6.24182 3.77897 6.24182C3.19127 6.24182 2.71484 6.71825 2.71484 7.30595C2.71484 7.89365 3.19127 8.37008 3.77897 8.37008Z" fill="#BED8E8"/>
<path d="M6.97038 8.37008C7.55808 8.37008 8.03451 7.89365 8.03451 7.30595C8.03451 6.71825 7.55808 6.24182 6.97038 6.24182C6.38268 6.24182 5.90625 6.71825 5.90625 7.30595C5.90625 7.89365 6.38268 8.37008 6.97038 8.37008Z" fill="#BED8E8"/>
<path d="M10.1628 8.37008C10.7505 8.37008 11.2269 7.89365 11.2269 7.30595C11.2269 6.71825 10.7505 6.24182 10.1628 6.24182C9.57506 6.24182 9.09863 6.71825 9.09863 7.30595C9.09863 7.89365 9.57506 8.37008 10.1628 8.37008Z" fill="#BED8E8"/>
<path d="M6.97035 11.5873C7.55804 11.5873 8.03445 11.1109 8.03445 10.5232C8.03445 9.93552 7.55804 9.45911 6.97035 9.45911C6.38266 9.45911 5.90625 9.93552 5.90625 10.5232C5.90625 11.1109 6.38266 11.5873 6.97035 11.5873Z" fill="#BED8E8"/>
<path d="M3.77895 11.5873C4.36663 11.5873 4.84305 11.1109 4.84305 10.5232C4.84305 9.93552 4.36663 9.45911 3.77895 9.45911C3.19126 9.45911 2.71484 9.93552 2.71484 10.5232C2.71484 11.1109 3.19126 11.5873 3.77895 11.5873Z" fill="#BED8E8"/>
</g>
<defs>
<clipPath id="clip0_79_593">
<rect width="14" height="14" fill="white"/>
</clipPath>
</defs>
</svg>
