<svg width="42" height="42" viewBox="0 0 42 42" fill="none" xmlns="http://www.w3.org/2000/svg">
<rect x="0.75" y="-0.75" width="39.5" height="39.5" rx="19.75" transform="matrix(-1 0 0 1 41.5 2)" fill="url(#paint0_linear_5882_5789)" stroke="url(#paint1_linear_5882_5789)" stroke-width="1.5"/>
<g clip-path="url(#clip0_5882_5789)">
<path d="M13.4381 19.7872C13.1555 19.0237 12.9508 18.2439 13.0125 17.4154C13.0515 16.9053 13.2432 16.47 13.6168 16.1126C14.023 15.7292 14.4063 15.3263 14.806 14.9364C15.3258 14.4231 15.9789 14.4263 16.4987 14.9364C16.8204 15.2516 17.1388 15.5732 17.4572 15.8949C17.7658 16.2035 18.0777 16.5122 18.3864 16.8241C18.929 17.3732 18.9322 18.0132 18.3896 18.5591C17.9998 18.949 17.6131 19.3421 17.2167 19.7255C17.1128 19.8262 17.103 19.9107 17.1583 20.0374C17.4182 20.6612 17.7951 21.2168 18.2174 21.7366C19.0687 22.7828 20.0304 23.712 21.1773 24.4301C21.4242 24.5828 21.6939 24.6965 21.9506 24.8362C22.0838 24.9077 22.1715 24.8849 22.2787 24.7745C22.6653 24.3748 23.0617 23.9817 23.4581 23.5886C23.978 23.0752 24.6278 23.072 25.1476 23.5886C25.7844 24.2189 26.418 24.8524 27.0483 25.4892C27.5779 26.0221 27.5746 26.6751 27.0418 27.2112C26.6811 27.5751 26.301 27.9195 25.9631 28.2996C25.4693 28.852 24.8454 29.0339 24.1372 28.9949C23.104 28.9397 22.152 28.5953 21.2325 28.1502C19.1921 27.1592 17.4507 25.7849 15.9919 24.0499C14.9132 22.7633 14.023 21.3662 13.4381 19.7872ZM28.2439 20.9504C28.662 20.9504 29.0047 20.6104 28.9653 20.1941C28.6067 16.4133 25.5876 13.3943 21.8068 13.0357C21.3906 12.9962 21.0506 13.3389 21.0506 13.757C21.0506 14.1751 21.391 14.5094 21.8063 14.5582C24.7518 14.9045 27.0965 17.2492 27.4428 20.1947C27.4916 20.6099 27.8258 20.9504 28.2439 20.9504ZM24.5693 20.1987C24.6556 20.6078 24.9862 20.9504 25.4043 20.9504C25.8224 20.9504 26.1672 20.6094 26.1057 20.1959C25.7763 17.9814 24.0196 16.2247 21.805 15.8953C21.3915 15.8338 21.0506 16.1786 21.0506 16.5967C21.0506 17.0148 21.3932 17.3454 21.8022 17.4317C22.4768 17.574 23.0961 17.9079 23.5946 18.4064C24.093 18.9049 24.4269 19.5241 24.5693 20.1987Z" fill="white"/>
</g>
<defs>
<linearGradient id="paint0_linear_5882_5789" x1="48.5" y1="-36" x2="-23" y2="70.5" gradientUnits="userSpaceOnUse">
<stop stop-color="#86D2FF"/>
<stop offset="1" stop-color="#47BBFF"/>
</linearGradient>
<linearGradient id="paint1_linear_5882_5789" x1="19" y1="0" x2="19" y2="38" gradientUnits="userSpaceOnUse">
<stop stop-color="#BEE7FF"/>
<stop offset="1" stop-color="#52BFFF"/>
</linearGradient>
<clipPath id="clip0_5882_5789">
<rect width="16" height="16" fill="white" transform="translate(13 13)"/>
</clipPath>
</defs>
</svg>
