<svg width="16" height="16" viewBox="0 0 16 16" fill="none" xmlns="http://www.w3.org/2000/svg">
<g clip-path="url(#clip0_6035_1281)">
<path d="M0.43831 6.78733C0.155645 6.02381 -0.0490431 5.24405 0.0126883 4.41555C0.0516766 3.90545 0.243369 3.47008 0.617006 3.11269C1.02313 2.72931 1.40652 2.32643 1.80615 1.93655C2.32599 1.4232 2.97904 1.42645 3.49889 1.93655C3.82054 2.2517 4.13895 2.57335 4.45735 2.89501C4.76601 3.20366 5.07791 3.51232 5.38657 3.82423C5.92916 4.37331 5.93241 5.01337 5.38982 5.5592C4.99994 5.94909 4.6133 6.34222 4.21692 6.7256C4.11295 6.82632 4.10321 6.9108 4.15844 7.03751C4.41836 7.66132 4.79525 8.2169 5.21762 8.73675C6.06886 9.78293 7.03057 10.7122 8.17748 11.4302C8.4244 11.5829 8.69407 11.6966 8.95075 11.8363C9.08396 11.9078 9.17168 11.885 9.2789 11.7746C9.66553 11.375 10.0619 10.9818 10.4583 10.5887C10.9781 10.0753 11.6279 10.0721 12.1478 10.5887C12.7846 11.219 13.4181 11.8526 14.0485 12.4894C14.5781 13.0222 14.5748 13.6753 14.042 14.2113C13.6813 14.5752 13.3012 14.9196 12.9633 15.2998C12.4694 15.8521 11.8456 16.034 11.1373 15.9951C10.1041 15.9398 9.15219 15.5954 8.23271 15.1503C6.19233 14.1594 4.45085 12.785 2.99204 11.05C1.91337 9.76344 1.02313 8.36636 0.43831 6.78733ZM15.2441 7.95048C15.6622 7.95048 16.0049 7.61049 15.9654 7.19427C15.6068 3.41345 12.5878 0.394405 8.80698 0.0358166C8.39076 -0.00365986 8.05077 0.339059 8.05077 0.75715C8.05077 1.17524 8.39122 1.50949 8.80645 1.55831C11.752 1.90461 14.0966 4.2493 14.4429 7.1948C14.4918 7.61003 14.826 7.95048 15.2441 7.95048ZM11.5695 7.19882C11.6558 7.60791 11.9864 7.95048 12.4045 7.95048C12.8225 7.95048 13.1674 7.60957 13.1059 7.19603C12.7764 4.98149 11.0198 3.22481 8.80522 2.89539C8.39168 2.83387 8.05077 3.1787 8.05077 3.5968C8.05077 4.01489 8.39334 4.34548 8.80243 4.43179C9.47698 4.57412 10.0963 4.90802 10.5948 5.4065C11.0932 5.90498 11.4271 6.52427 11.5695 7.19882Z" fill="white"/>
</g>
<defs>
<clipPath id="clip0_6035_1281">
<rect width="16" height="16" fill="white"/>
</clipPath>
</defs>
</svg>
