<svg width="38" height="38" viewBox="0 0 38 38" fill="none" xmlns="http://www.w3.org/2000/svg">
<rect width="38" height="38" rx="19" transform="matrix(-1 0 0 1 38 0)" fill="url(#paint0_linear_5882_5783)"/>
<g clip-path="url(#clip0_5882_5783)">
<path d="M11.4381 17.7872C11.1555 17.0237 10.9508 16.2439 11.0125 15.4154C11.0515 14.9053 11.2432 14.47 11.6168 14.1126C12.023 13.7292 12.4063 13.3263 12.806 12.9364C13.3258 12.4231 13.9789 12.4263 14.4987 12.9364C14.8204 13.2516 15.1388 13.5732 15.4572 13.8949C15.7658 14.2035 16.0777 14.5122 16.3864 14.8241C16.929 15.3732 16.9322 16.0132 16.3896 16.5591C15.9998 16.949 15.6131 17.3421 15.2167 17.7255C15.1128 17.8262 15.103 17.9107 15.1583 18.0374C15.4182 18.6612 15.7951 19.2168 16.2174 19.7366C17.0687 20.7828 18.0304 21.712 19.1773 22.4301C19.4242 22.5828 19.6939 22.6965 19.9506 22.8362C20.0838 22.9077 20.1715 22.8849 20.2787 22.7745C20.6653 22.3748 21.0617 21.9817 21.4581 21.5886C21.978 21.0752 22.6278 21.072 23.1476 21.5886C23.7844 22.2189 24.418 22.8524 25.0483 23.4892C25.5779 24.0221 25.5746 24.6751 25.0418 25.2112C24.6811 25.5751 24.301 25.9195 23.9631 26.2996C23.4693 26.852 22.8454 27.0339 22.1372 26.9949C21.104 26.9397 20.152 26.5953 19.2325 26.1502C17.1921 25.1592 15.4507 23.7849 13.9919 22.0499C12.9132 20.7633 12.023 19.3662 11.4381 17.7872ZM26.2439 18.9504C26.662 18.9504 27.0047 18.6104 26.9653 18.1941C26.6067 14.4133 23.5876 11.3943 19.8068 11.0357C19.3906 10.9962 19.0506 11.3389 19.0506 11.757C19.0506 12.1751 19.391 12.5094 19.8063 12.5582C22.7518 12.9045 25.0965 15.2492 25.4428 18.1947C25.4916 18.6099 25.8258 18.9504 26.2439 18.9504ZM22.5693 18.1987C22.6556 18.6078 22.9862 18.9504 23.4043 18.9504C23.8224 18.9504 24.1672 18.6094 24.1057 18.1959C23.7763 15.9814 22.0196 14.2247 19.805 13.8953C19.3915 13.8338 19.0506 14.1786 19.0506 14.5967C19.0506 15.0148 19.3932 15.3454 19.8022 15.4317C20.4768 15.574 21.0961 15.9079 21.5946 16.4064C22.093 16.9049 22.4269 17.5241 22.5693 18.1987Z" fill="white"/>
</g>
<defs>
<linearGradient id="paint0_linear_5882_5783" x1="38" y1="42.5" x2="6.5" y2="2" gradientUnits="userSpaceOnUse">
<stop offset="0.447917" stop-color="#B1E2FF"/>
<stop offset="1" stop-color="#68C7FF"/>
</linearGradient>
<clipPath id="clip0_5882_5783">
<rect width="16" height="16" fill="white" transform="translate(11 11)"/>
</clipPath>
</defs>
</svg>
