<svg width="14" height="14" viewBox="0 0 14 14" fill="none" xmlns="http://www.w3.org/2000/svg">
<path d="M6.71289 1.00024C4.82284 1.00024 3.28516 2.53793 3.28516 4.42798C3.28516 6.31803 4.82284 7.85571 6.71289 7.85571C8.60294 7.85571 10.1406 6.31803 10.1406 4.42798C10.1406 2.53793 8.60294 1.00024 6.71289 1.00024Z" fill="#BED8E8"/>
<path d="M10.9777 10.095C10.0392 9.14218 8.79515 8.61743 7.47461 8.61743H5.95117C4.63066 8.61743 3.38657 9.14218 2.44813 10.095C1.51429 11.0432 1 12.2948 1 13.6194C1 13.8297 1.17052 14.0002 1.38086 14.0002H12.0449C12.2553 14.0002 12.4258 13.8297 12.4258 13.6194C12.4258 12.2948 11.9115 11.0432 10.9777 10.095Z" fill="#BED8E8"/>
</svg>
