<svg width="20" height="20" viewBox="0 0 20 20" fill="none" xmlns="http://www.w3.org/2000/svg">
<rect width="20" height="20" rx="10" fill="#52BFFF"/>
<path d="M14.6641 8.11985L9.56146 13.6363C9.34449 13.8709 9.05608 14 8.74928 14C8.44247 14 8.15406 13.8709 7.93709 13.6363L5.33647 10.8248C5.1195 10.5903 5 10.2784 5 9.94677C5 9.61499 5.1195 9.30319 5.33647 9.06863C5.55335 8.83407 5.84176 8.70487 6.14865 8.70487C6.45545 8.70487 6.74395 8.83407 6.96083 9.06872L8.74919 11.002L13.0396 6.36366C13.2566 6.1291 13.545 6 13.8518 6C14.1586 6 14.447 6.1291 14.664 6.36366C15.112 6.84799 15.112 7.6357 14.6641 8.11985Z" fill="white"/>
</svg>
