<svg width="21" height="20" viewBox="0 0 21 20" fill="none" xmlns="http://www.w3.org/2000/svg">
<path d="M19.2569 -1.90735e-06H0.820313C0.388794 -1.90735e-06 0.0390625 0.34973 0.0390625 0.781248C0.0390625 2.95685 0.97168 5.03387 2.59781 6.47934L6.01929 9.52042C6.61255 10.0478 6.95282 10.8055 6.95282 11.5994V19.2178C6.95282 19.8404 7.64862 20.2136 8.16727 19.8677L12.7765 16.795C12.9938 16.6501 13.1244 16.4063 13.1244 16.145V11.5994C13.1244 10.8055 13.4647 10.0478 14.0579 9.52042L17.4793 6.47934C19.1054 5.03387 20.038 2.95685 20.038 0.781248C20.038 0.34973 19.6883 -1.90735e-06 19.2569 -1.90735e-06ZM16.4412 5.31143L13.0199 8.35266C12.0934 9.17633 11.5619 10.3597 11.5619 11.5993V15.7269L8.51517 17.758V11.5994C8.51517 10.3597 7.98371 9.17633 7.05719 8.35266L3.63587 5.31158C2.53937 4.3367 1.83945 3.00095 1.65207 1.56235H18.425C18.2376 3.00095 17.5378 4.3367 16.4412 5.31143Z" fill="white"/>
</svg>
