<svg width="14" height="20" viewBox="0 0 14 20" fill="none" xmlns="http://www.w3.org/2000/svg">
<path d="M11.2542 5.19363C11.118 4.96856 10.8487 4.8616 10.5953 4.93225C10.342 5.0029 10.1667 5.23376 10.1667 5.49667C10.1667 6.21185 9.58484 6.79352 8.86981 6.79352C8.15479 6.79352 7.57297 6.21185 7.57297 5.49667V0.585934C7.57297 0.348965 7.43015 0.135341 7.21118 0.0447042C6.99222 -0.0460857 6.7403 0.00396317 6.57275 0.171657C6.50684 0.237423 4.94449 1.80908 3.36154 4.1835C2.42801 5.58365 1.68307 6.9725 1.14749 8.31146C0.469086 10.0078 0.125 11.6316 0.125 13.1381C0.125 16.9217 3.20331 20 6.98703 20C10.7706 20 13.8489 16.9217 13.8489 13.1381C13.8491 10.7161 12.976 8.04321 11.2542 5.19363ZM10.8968 12.9857C10.8968 13.3093 10.6345 13.5716 10.3109 13.5716C9.98737 13.5716 9.72491 13.3093 9.72491 12.9857V11.89L6.80743 14.8076C6.69742 14.9175 6.54849 14.9791 6.39301 14.9791C6.23767 14.9791 6.08859 14.9175 5.97873 14.8076L4.61795 13.4467L3.7009 14.3637C3.47202 14.5926 3.10107 14.5926 2.87219 14.3637C2.64331 14.1348 2.64331 13.7639 2.87219 13.535L4.20367 12.2037C4.43256 11.9749 4.8035 11.9749 5.03238 12.2038L6.39301 13.5646L8.89636 11.0613H7.80048C7.47684 11.0613 7.21454 10.799 7.21454 10.4753C7.21454 10.1517 7.47684 9.88937 7.80048 9.88937H10.311C10.6345 9.88937 10.8969 10.1518 10.8969 10.4753V12.9857H10.8968Z" fill="#D9D9D9"/>
</svg>
