<svg width="14" height="9" viewBox="0 0 14 9" fill="none" xmlns="http://www.w3.org/2000/svg">
<path d="M13.9997 3.52488C13.9997 2.9526 13.5517 2.48879 12.9989 2.48879C12.4464 2.48879 11.9981 2.9526 11.9981 3.52488V5.46244L7.01486 0.303273C6.82694 0.109006 6.57257 0 6.30698 0C6.04166 0 5.78703 0.109006 5.59937 0.303273L3.27508 2.70977L1.70869 1.08817C1.31775 0.683447 0.684154 0.683447 0.293209 1.08817C-0.0977362 1.4929 -0.0977362 2.14882 0.293209 2.55354L2.56747 4.90769C2.95841 5.31215 3.592 5.31215 3.98295 4.90742L6.30698 2.5012L10.5829 6.92781H8.71104C8.15824 6.92781 7.71022 7.39162 7.71022 7.96391C7.71022 8.53619 8.15824 9 8.71104 9H12.9992C13.5517 9 14 8.53592 14 7.96391L13.9997 3.52488Z" fill="#D9D9D9"/>
</svg>
